# Made in Blockbench 5.1.5
mtllib root_crystal.mtl

o mesh
v 0.6609836036403416 0.7521078136620893 0.5607306615330716
v 0.5233358884637911 0.9790336209198007 0.4798136143605077
v 0.6609836036403416 0.3461696370167698 0.4519598549239958
v 0.5233361504448785 0.6355951235977559 0.37104259759249203
v 0.5079145081088922 0.529173864108884 0.6267523077503998
v 0.37026637068846197 0.7560991869263389 0.5458346537189197
v 0.5079142461278048 0.06073480073300663 0.5179813877764574
v 0.37026637068846197 0.3501610102810195 0.4370638471098439
vt 1 1
vt 0 1
vt 0 0.5
vt 1 0.5
vt 0 0
vt 1 0
vt 1 1
vt 0 1
vt 1 0
vt 1 1
vt 0 1
vt 0 0
vt 1 1
vt 0 1
vt 0 0.5
vt 1 0.5
vt 1 0.5
vt 1 1
vt 0 1
vt 0 0.5
vt 1 0.5
vt 1 1
vt 0 1
vt 0 0.5
vn 0.705159201961044 0.1835153879377548 -0.6848887517544137
vn -0.04435553049698122 0.3115571018518639 0.9491916346028335
vn 0.04616196305237614 -0.2485440649436838 -0.9675199847798603
vn -0.6480567278971087 0.22994764536453421 -0.7260485919128274
vn 0.6216206715889986 -0.2027377244087009 0.7566274881041687
vn -0.6870303064958944 -0.16434945785174532 0.7077984272799672
usemtl m_ee64d90a-8b1c-506c-802c-0694b8064325
f 2/1/1 1/2/1 3/3/1 4/4/1
f 5/5/2 1/6/2 2/7/2 6/8/2
f 4/9/3 3/10/3 7/11/3 8/12/3
f 6/13/4 2/14/4 4/15/4 8/16/4
f 3/17/5 1/18/5 5/19/5 7/20/5
f 7/21/6 5/22/6 6/23/6 8/24/6
o mesh
v 0.4181691424741047 0.39399092222765886 0.5738325403244774
v 0.2553104126855025 0.43971625653361424 0.5475387919610037
v 0.5248719599670402 0.19671749167501643 0.45859432460564103
v 0.33556550519456513 0.29133969262862963 0.4608639141986912
v 0.415916769821562 0.23593342401902814 0.6395431737578325
v 0.2530580400329598 0.28165875832498355 0.6132494253943589
v 0.5490669712160832 0.05226276955036205 0.4957419341380115
v 0.3597608575258953 0.08438532777234115 0.4980112096755226
vt 0.5625 1
vt 0 1
vt 0 0.71875
vt 0.5625 0.71875
vt 0 0.4375
vt 0.5625 0.4375
vt 0.5625 1
vt 0 1
vt 0.5625 0.4375
vt 0.5625 1
vt 0 1
vt 0 0.4375
vt 0.5625 1
vt 0 1
vt 0 0.71875
vt 0.5625 0.71875
vt 0.5625 0.71875
vt 0.5625 1
vt 0 1
vt 0 0.71875
vt 0.5625 0.71875
vt 0.5625 1
vt 0 1
vt 0 0.71875
vn 0.28810466421183667 0.5944064258248378 -0.750784059099237
vn -0.04109018239346229 0.3840602141057062 0.9223932723366706
vn -0.14599430097549335 -0.26925130248397006 -0.9519398091231203
vn -0.8590275142932302 -0.1860367908255821 -0.4769298084063449
vn 0.8590275142932302 0.1860367908255821 0.4769298084063449
vn -0.3023999108719309 -0.7137989051721576 0.6317004170330089
usemtl m_ee64d90a-8b1c-506c-802c-0694b8064325
f 10/25/7 9/26/7 11/27/7 12/28/7
f 13/29/8 9/30/8 10/31/8 14/32/8
f 12/33/9 11/34/9 15/35/9 16/36/9
f 14/37/10 10/38/10 12/39/10 16/40/10
f 11/41/11 9/42/11 13/43/11 15/44/11
f 15/45/12 13/46/12 14/47/12 16/48/12
o mesh
v 0.5284503312689401 0.3770590835873737 0.4129799177959035
v 0.693381798906608 0.41343019626210176 0.3850534712901774
v 0.453717116241715 0.1838508262515995 0.5567424299260405
v 0.6371722139450233 0.2681111978483631 0.493182515877995
v 0.500322666120617 0.22029431107367248 0.3502202665796855
v 0.6652541337582849 0.2566654237484005 0.32229382007395946
v 0.4695658332746182 0.041696863608787466 0.529615931113807
v 0.5905209187310598 0.0634571664126263 0.4660563322040965
vt 0.5625 1
vt 0 1
vt 0 0.71875
vt 0.5625 0.71875
vt 0 0.4375
vt 0.5625 0.4375
vt 0.5625 1
vt 0 1
vt 0.5625 0.4375
vt 0.5625 1
vt 0 1
vt 0 0.4375
vt 0.5625 1
vt 0 1
vt 0 0.71875
vt 0.5625 0.71875
vt 0.5625 0.71875
vt 0.5625 1
vt 0 1
vt 0 0.71875
vt 0.5625 0.71875
vt 0.5625 1
vt 0 1
vt 0 0.71875
vn 0.004596331067386878 0.5958050877477415 0.8031159138970071
vn -0.23771908588672827 0.39747185699276016 -0.8862876277506673
vn 0.3783210811352404 -0.13263986987294166 0.9161221667925913
vn 0.9550596352132635 -0.24064648484416634 0.17306173036941014
vn -0.9550596352132635 0.24064648484416634 -0.17306173036941014
vn 0.03806668670944034 -0.7114235933717553 -0.7017317138030637
usemtl m_ee64d90a-8b1c-506c-802c-0694b8064325
f 18/49/13 17/50/13 19/51/13 20/52/13
f 21/53/14 17/54/14 18/55/14 22/56/14
f 20/57/15 19/58/15 23/59/15 24/60/15
f 22/61/16 18/62/16 20/63/16 24/64/16
f 19/65/17 17/66/17 21/67/17 23/68/17
f 23/69/18 21/70/18 22/71/18 24/72/18
o mesh
v 0.26456035384886567 0.49632938247635355 0.3627841292324884
v 0.3451347802285063 0.6262404472647185 0.30508339596763834
v 0.3807667501040023 0.18858430807530488 0.5191440921239772
v 0.44140047140804956 0.4338040854784706 0.4346121195517829
v 0.3499786667278431 0.30675594538634043 0.30270544548522593
v 0.4305538343644012 0.49916743868279345 0.24500393784850294
v 0.48612581705435337 0.008702999591592098 0.48589613324031905
v 0.5467602306195379 0.19142236428174478 0.40136390073999184
vt 0.5625 1
vt 0 1
vt 0 0.71875
vt 0.5625 0.71875
vt 0 0.4375
vt 0.5625 0.4375
vt 0.5625 1
vt 0 1
vt 0.5625 0.4375
vt 0.5625 1
vt 0 1
vt 0 0.4375
vt 0.5625 1
vt 0 1
vt 0 0.71875
vt 0.5625 0.71875
vt 0.5625 0.71875
vt 0.5625 1
vt 0 1
vt 0 0.71875
vt 0.5625 0.71875
vt 0.5625 1
vt 0 1
vt 0 0.71875
vn -0.057573391515739994 0.43485309886001033 0.8986590493625608
vn -0.5793226432210007 -0.0027166276975285064 -0.815093795207267
vn 0.5299028634364864 0.15630824403826543 0.8335290565826046
vn 0.8500172707773247 0.5110771037051688 0.1275571771740202
vn -0.9180991510795394 -0.3879416587936972 -0.08121094851941944
vn 0.3114576436636127 -0.39025650886831903 -0.866425988466079
usemtl m_ee64d90a-8b1c-506c-802c-0694b8064325
f 26/73/19 25/74/19 27/75/19 28/76/19
f 29/77/20 25/78/20 26/79/20 30/80/20
f 28/81/21 27/82/21 31/83/21 32/84/21
f 30/85/22 26/86/22 28/87/22 32/88/22
f 27/89/23 25/90/23 29/91/23 31/92/23
f 31/93/24 29/94/24 30/95/24 32/96/24
o mesh
v 0.7847907688771929 0.40625060658997114 0.6074885273189458
v 0.6887600600343127 0.5832669157317922 0.7089295296359666
v 0.6502845390686278 0.18312533452820157 0.44285597290476747
v 0.5542536245426217 0.42210740830747884 0.5524544178047123
v 0.6537034427412669 0.23177601336981268 0.6881601676483924
v 0.5576727338983866 0.4087923225116338 0.7896011699654131
v 0.5191970125680011 0.00918501084451806 0.5153695721613064
v 0.4231665040898214 0.18566705044986417 0.6249686155512348
vt 0.5625 1
vt 0 1
vt 0 0.71875
vt 0.5625 0.71875
vt 0 0.4375
vt 0.5625 0.4375
vt 0.5625 1
vt 0 1
vt 0.5625 0.4375
vt 0.5625 1
vt 0 1
vt 0 0.4375
vt 0.5625 1
vt 0 1
vt 0 0.71875
vt 0.5625 0.71875
vt 0.5625 0.71875
vt 0.5625 1
vt 0 1
vt 0 0.71875
vt 0.5625 0.71875
vt 0.5625 1
vt 0 1
vt 0 0.71875
vn 0.11970581734484426 0.5417208946194468 -0.8319909792939519
vn 0.6211890328947051 -0.10782108459497672 0.7762079612630266
vn -0.5994117076634037 0.12193841940850217 -0.7910983672010697
vn -0.7883640486283219 0.6135008789559206 0.04581264400440124
vn 0.8172844120043177 -0.5672927804216629 0.10111919291715002
vn -0.14569688013021248 -0.5502172829951103 0.8222124789942084
usemtl m_ee64d90a-8b1c-506c-802c-0694b8064325
f 34/97/25 33/98/25 35/99/25 36/100/25
f 37/101/26 33/102/26 34/103/26 38/104/26
f 36/105/27 35/106/27 39/107/27 40/108/27
f 38/109/28 34/110/28 36/111/28 40/112/28
f 35/113/29 33/114/29 37/115/29 39/116/29
f 39/117/30 37/118/30 38/119/30 40/120/30
o mesh
v 0.5625 0.125 0.5625
v 0.5625 0.125 0.4375
v 0.5625 0 0.5625
v 0.5625 0 0.4375
v 0.4375 0.125 0.5625
v 0.4375 0.125 0.4375
v 0.4375 0 0.5625
v 0.4375 0 0.4375
vt 0.25 1
vt 0 1
vt 0 0.75
vt 0.25 0.75
vt 0.25 0.75
vt 0.25 1
vt 0 1
vt 0 0.75
vt 0 0.5
vt 0.25 0.5
vt 0.25 0.75
vt 0 0.75
vt 0.5 0.5
vt 0.5 0.75
vt 0.25 0.75
vt 0.25 0.5
vt 0.5 0.75
vt 0.5 1
vt 0.25 1
vt 0.25 0.75
vt 0.5 1
vt 0.25 1
vt 0.25 0.75
vt 0.5 0.75
vn 1 0 0
vn -1 0 0
vn 0 1 0
vn 0 -1 0
vn 0 0 1
vn 0 0 -1
usemtl m_4a73cd30-ba20-ed38-3f71-18e90d05e2bd
f 42/121/31 41/122/31 43/123/31 44/124/31
f 47/125/32 45/126/32 46/127/32 48/128/32
f 45/129/33 41/130/33 42/131/33 46/132/33
f 44/133/34 43/134/34 47/135/34 48/136/34
f 43/137/35 41/138/35 45/139/35 47/140/35
f 46/141/36 42/142/36 44/143/36 48/144/36